<svg version="1.1" viewBox="0.0 0.0 1528.5380577427823 2352.3569553805773" fill="none" stroke="none" stroke-linecap="square" stroke-miterlimit="10" xmlns:xlink="http://www.w3.org/1999/xlink" xmlns="http://www.w3.org/2000/svg"><clipPath id="p.0"><path d="m0 0l1528.5381 0l0 2352.357l-1528.5381 0l0 -2352.357z" clip-rule="nonzero"/></clipPath><g clip-path="url(#p.0)"><path fill="#000000" fill-opacity="0.0" d="m0 0l1528.5381 0l0 2352.357l-1528.5381 0z" fill-rule="evenodd"/><path fill="#efff00" d="m1250.097 305.04297l0 0c9.793335 -0.443573 18.09253 7.1358337 18.536865 16.929077l13.981445 308.1576c0.2133789 4.702881 -1.4501953 9.2977295 -4.624756 12.773804c-3.1745605 3.4760742 -7.6000977 5.548584 -12.3029785 5.7615967l0 0l0 0c-9.793213 0.44354248 -18.092407 -7.1358643 -18.536743 -16.929077l-13.981567 -308.15762c-0.44433594 -9.793243 7.1345215 -18.091797 16.927734 -18.53537z" fill-rule="evenodd"/><path fill="#efff00" d="m1264.0027 621.2293l0 0c9.758545 -1.2263184 18.6604 5.690735 19.883057 15.449646l21.745728 173.57312c0.5871582 4.6864014 -0.7114258 9.414856 -3.6098633 13.14502c-2.8984375 3.7302246 -7.159546 6.1566772 -11.845703 6.7456055l0 0l0 0c-9.758423 1.2263184 -18.6604 -5.690735 -19.883057 -15.449646l-21.745728 -173.57312c-1.2225342 -9.758972 5.6971436 -18.664307 15.455566 -19.890625z" fill-rule="evenodd"/><path fill="#efff00" d="m873.027 392.27893l0 0c5.1488647 -8.332092 16.072937 -10.905518 24.399658 -5.7478943l378.41333 234.3934c3.9986572 2.4768066 6.8511963 6.4416504 7.930298 11.022278c1.0791016 4.5806274 0.29626465 9.401855 -2.1763916 13.403076l0 0l0 0c-5.1488037 8.332092 -16.072876 10.905518 -24.399536 5.747925l-378.4134 -234.39343c-8.32666 -5.157654 -10.902832 -16.093231 -5.7539673 -24.425354z" fill-rule="evenodd"/><path fill="#00d7ff" d="m11.811112 1179.6729l0 0c-6.5230484 -7.253662 -5.8863664 -18.37207 1.4220686 -24.833618l866.4472 -766.0493c3.5096436 -3.1029663 8.119934 -4.695099 12.816589 -4.4261475c4.6967163 0.26895142 9.095093 2.3769531 12.227539 5.86026l0 0l0 0c6.5230713 7.2536316 5.8863525 18.37201 -1.4220581 24.833588l-866.4472 766.0493c-7.3084354 6.461548 -18.521069 5.819458 -25.044117 -1.434082z" fill-rule="evenodd"/><path fill="#00ff80" d="m1104.8778 815.9087l0 0c9.514893 2.3483276 15.254395 11.947693 12.819336 21.440796l-162.26862 632.6145c-1.1693115 4.558716 -4.105896 8.482788 -8.163696 10.908936c-4.0578003 2.4261475 -8.904419 3.1556396 -13.473633 2.027954l0 0l0 0c-9.514954 -2.3483887 -15.254395 -11.947754 -12.819336 -21.440796l162.26862 -632.6145c2.4349365 -9.493164 12.122314 -15.285156 21.63733 -12.93689z" fill-rule="evenodd"/><path fill="#00ff80" d="m1298.6426 798.5403l0 0c7.4101562 6.41864 8.149414 17.572754 1.6512451 24.913269l-251.74353 284.3781c-3.1206055 3.5250244 -7.5269775 5.6812744 -12.249756 5.994385c-4.7227783 0.31298828 -9.375122 -1.2427979 -12.933594 -4.3251953l0 0l0 0c-7.4102173 -6.418701 -8.149536 -17.572754 -1.6513672 -24.91333l251.74365 -284.37805c6.498169 -7.340576 17.773071 -8.087891 25.18335 -1.6691895z" fill-rule="evenodd"/><path fill="#00ff80" d="m1185.8475 905.67285l0 0c8.37561 -5.0444336 19.174683 -2.2965088 24.120361 6.1378174l100.10571 170.71655c2.375 4.050293 3.0550537 8.896973 1.8903809 13.473877c-1.1646729 4.5770264 -4.0786133 8.509155 -8.100708 10.931641l0 0l0 0c-8.37561 5.0444336 -19.174683 2.2965088 -24.120361 -6.1378174l-100.10571 -170.71655c-4.9456787 -8.434265 -2.1652832 -19.361023 6.210327 -24.405518z" fill-rule="evenodd"/><path fill="#9867f0" d="m731.7641 926.6433l0 0c9.07135 -3.678955 19.329102 0.7237549 22.911316 9.833801l201.98834 513.6868c1.7202759 4.374756 1.6395264 9.272217 -0.22442627 13.614868c-1.8639526 4.3427734 -5.3583984 7.7750244 -9.7146 9.541748l0 0l0 0c-9.071411 3.678955 -19.329163 -0.7237549 -22.911316 -9.833862l-201.9884 -513.6867c-3.5821533 -9.110046 0.8676758 -19.477661 9.939087 -23.156677z" fill-rule="evenodd"/><path fill="#9867f0" d="m49.020447 2340.2927l0 0c-8.775673 -4.270508 -12.361286 -14.813721 -8.008694 -23.548828l678.3796 -1361.438c2.090149 -4.194763 5.76886 -7.403137 10.226746 -8.919189c4.4578857 -1.5161133 9.329834 -1.2157593 13.544067 0.835022l0 0l0 0c8.775696 4.2703857 12.361328 14.813538 8.008728 23.548767l-678.37964 1361.438c-4.3525925 8.735107 -14.995159 12.354492 -23.770836 8.0842285z" fill-rule="evenodd"/><path fill="#9867f0" d="m46.064487 2339.3267l0 0c-6.9144325 -6.9143066 -6.8496933 -18.059326 0.14459229 -24.893066l876.97064 -856.8279c3.3587646 -3.2817383 7.898987 -5.1098633 12.621887 -5.0823975c4.7229614 0.02734375 9.241638 1.9082031 12.562073 5.2286377l0 0l0 0c6.9144287 6.9144287 6.8496704 18.059448 -0.14459229 24.893066l-876.97064 856.8281c-6.9942856 6.833496 -18.269535 6.7680664 -25.183964 -0.14648438z" fill-rule="evenodd"/><path fill="#00ff80" d="m1035.36 1089.2721l0 0c0 -9.793213 7.9384766 -17.640991 17.73108 -17.528442l241.23071 2.7734375c4.7026367 0.05407715 9.212524 1.9741211 12.537842 5.3377686c3.3251953 3.3637695 5.1932373 7.895508 5.1932373 12.598389l0 0l0 0c0 9.793213 -7.9384766 17.640991 -17.73108 17.528442l-241.23071 -2.7734375l0 0c-9.792603 -0.11254883 -17.73108 -8.142822 -17.73108 -17.936157z" fill-rule="evenodd"/><path fill="#00d7ff" d="m10.416028 1171.1733l0 0c-2.9919052 -9.314941 2.1500587 -19.240723 11.484899 -22.1698l1137.0618 -356.79425c4.482666 -1.4066162 9.352661 -0.97869873 13.53833 1.1896973c4.185791 2.168396 7.3444824 5.899597 8.78125 10.372742l0 0l0 0c2.9918213 9.314941 -2.1501465 19.240723 -11.484985 22.16986l-1137.0616 356.79425c-9.334841 2.9290771 -19.32764 -2.2475586 -22.319546 -11.5625z" fill-rule="evenodd"/><path fill="#b7b7b7" d="m1517.3367 260.1948l0 0c9.166992 3.6268005 13.635498 13.989258 9.980713 23.145172l-94.26062 236.13483c-1.755127 4.3968506 -5.187134 7.921692 -9.541016 9.799194c-4.353882 1.8775024 -9.272949 1.9537964 -13.675171 0.2121582l0 0l0 0c-9.166992 -3.626831 -13.63562 -13.989258 -9.980713 -23.145203l94.26062 -236.13486c3.6549072 -9.155884 14.049072 -13.638123 23.216187 -10.0112915z" fill-rule="evenodd"/><path fill="#b7b7b7" d="m1380.4536 271.69205l0 0c9.758423 -1.4785461 18.83606 5.2384033 20.27539 15.002747l32.960938 223.60083c0.6911621 4.6889954 -0.50756836 9.467987 -3.3323975 13.285675c-2.824829 3.817688 -7.0445557 6.361328 -11.730713 7.07135l0 0l0 0c-9.758545 1.4785767 -18.836182 -5.2383423 -20.275513 -15.002686l-32.960815 -223.60086c-1.439331 -9.764343 5.3045654 -18.87851 15.06311 -20.357056z" fill-rule="evenodd"/><path fill="#fd3c63" d="m1032.5354 23.647406l0 0c0 -9.514954 7.713379 -17.228348 17.228271 -17.228348l299.21265 0c4.569214 0 8.951294 1.8151245 12.182251 5.0460663c3.230957 3.2309408 5.0460205 7.613038 5.0460205 12.182281l0 0l0 0c0 9.514952 -7.713379 17.228346 -17.228271 17.228346l-299.21265 0c-9.514893 0 -17.228271 -7.713394 -17.228271 -17.228346z" fill-rule="evenodd"/><path fill="#fd3c63" d="m1339.2845 13.84252l0 0c5.6881104 -7.6450124 16.490723 -9.22342 24.128418 -3.5254726l158.8612 118.51552c3.6677246 2.7362518 6.1002197 6.8188324 6.762207 11.349625c0.6619873 4.5308075 -0.50061035 9.138672 -3.2321777 12.809937l0 0l0 0c-5.6881104 7.6450195 -16.490723 9.223419 -24.128418 3.525467l-158.8612 -118.5155c-7.6376953 -5.6979485 -9.21814 -16.514555 -3.5300293 -24.159567z" fill-rule="evenodd"/><path fill="#fd3c63" d="m1512.243 126.1031l0 0c9.854126 0 17.84253 7.988373 17.84253 17.842514l0 118.74017c0 4.7321167 -1.8798828 9.270447 -5.225952 12.616547c-3.3461914 3.3461304 -7.8845215 5.225952 -12.616577 5.225952l0 0l0 0c-9.854126 0 -17.84253 -7.988373 -17.84253 -17.842499l0 -118.74017c0 -9.854141 7.9884033 -17.842514 17.84253 -17.842514z" fill-rule="evenodd"/><path fill="#fd3c63" d="m1355.1866 10.865035l0 0c9.854248 -0.878438 18.566406 6.396762 19.45935 16.24961l22.309814 246.17792c0.42871094 4.7315063 -1.039917 9.436798 -4.0827637 13.08078c-3.0429688 3.6439514 -7.4108887 5.9281006 -12.143066 6.349945l0 0l0 0c-9.854126 0.8784485 -18.566406 -6.396759 -19.459229 -16.249603l-22.309814 -246.17795l0 0c-0.89294434 -9.85285 6.371582 -18.552277 16.225708 -19.430714z" fill-rule="evenodd"/><path fill="#fd3c63" d="m1367.4703 272.65192l0 0c-0.7305908 -9.8541565 6.6639404 -18.456879 16.515991 -19.214722l125.64526 -9.665024c4.731201 -0.36393738 9.407837 1.1668701 13.001343 4.2556458c3.5935059 3.088791 5.8094482 7.4825287 6.1602783 12.214645l0 0l0 0c0.7305908 9.8541565 -6.6638184 18.45691 -16.515991 19.214752l-125.64526 9.665009c-9.852051 0.75787354 -18.43103 -6.61615 -19.161621 -16.470306z" fill-rule="evenodd"/><path fill="#fd3c63" d="m1168.2449 341.07312l0 0c-2.8874512 -9.4105835 2.397705 -19.389374 11.80481 -22.288208l211.54016 -65.18736c4.517456 -1.3920746 9.400635 -0.93193054 13.575562 1.2792206c4.1748047 2.2111511 7.2991943 5.9921875 8.685791 10.5112915l0 0l0 0c2.8875732 9.4105835 -2.397583 19.389374 -11.8046875 22.288239l-211.54016 65.18735c-9.4071045 2.8988647 -19.373901 -2.3799438 -22.261475 -11.790527z" fill-rule="evenodd"/><path fill="#fd3c63" d="m977.90845 148.4729l0 0c6.6187134 -7.297119 17.91455 -7.8634644 25.22998 -1.2649841l194.2959 175.25436c3.5130615 3.1687012 5.619507 7.5996704 5.856079 12.318146c0.23657227 4.718445 -1.4161377 9.337891 -4.5946045 12.842072l0 0l0 0c-6.6186523 7.297119 -17.91455 7.8634644 -25.22998 1.2649841l-194.2959 -175.25436c-7.3154297 -6.5984955 -7.880249 -17.863098 -1.2614746 -25.160217z" fill-rule="evenodd"/><path fill="#fd3c63" d="m880.1425 419.34784l0 0c-9.071411 -3.974701 -13.241943 -14.567566 -9.3151245 -23.65979l162.9137 -377.21585c1.8857422 -4.3662434 5.4246826 -7.7954187 9.838379 -9.533148c4.4136963 -1.7377291 9.340698 -1.641665 13.696899 0.26705837l0 0l0 0c9.071411 3.9747105 13.241821 14.567559 9.315063 23.65979l-162.91364 377.21585c-3.9268188 9.092224 -14.463928 13.240784 -23.535278 9.266083z" fill-rule="evenodd"/><path fill="#efff00" d="m878.2735 387.3916l0 0c8.036377 -5.6359253 19.086304 -3.6664429 24.680664 4.3988953l279.52045 402.98172c2.6865234 3.873108 3.7299805 8.662781 2.9007568 13.315247c-0.82922363 4.652466 -3.4631348 8.786682 -7.3223877 11.493103l0 0l0 0c-8.036377 5.6359253 -19.086304 3.6664429 -24.680664 -4.3988647l-279.5205 -402.98175l0 0c-5.5943604 -8.065369 -3.614746 -19.172424 4.421692 -24.80835z" fill-rule="evenodd"/><path fill="#efff00" d="m1152.7163 811.2028l0 0c0 -9.793274 7.938843 -17.689697 17.732056 -17.637207l117.260254 0.62872314c4.702881 0.02520752 9.213135 1.9176025 12.538452 5.2609253c3.3254395 3.3432617 5.1936035 7.8635254 5.1936035 12.566467l0 0l0 0c0 9.793274 -7.938843 17.689697 -17.732056 17.637207l-117.260254 -0.6287842c-9.793213 -0.052490234 -17.732056 -8.034058 -17.732056 -17.827332z" fill-rule="evenodd"/></g></svg>